<?xml version="1.0" encoding="utf-8"?>
<!-- Generator: Adobe Illustrator 16.0.0, SVG Export Plug-In . SVG Version: 6.00 Build 0)  -->
<!DOCTYPE svg PUBLIC "-//W3C//DTD SVG 1.1//EN" "http://www.w3.org/Graphics/SVG/1.1/DTD/svg11.dtd">
<svg version="1.1" id="Layer_1" xmlns="http://www.w3.org/2000/svg" xmlns:xlink="http://www.w3.org/1999/xlink" x="0px" y="0px"
	 width="71px" height="71px" viewBox="0 0 71 71" enable-background="new 0 0 71 71" xml:space="preserve">
<title></title>
<g>
	<title>background</title>
	<rect id="canvas_background" x="-1" y="-1" fill="none" width="73" height="73"/>
</g>
<g>
	<title>Layer 1</title>
	<linearGradient id="svg_1_1_" gradientUnits="userSpaceOnUse" x1="22.0156" y1="55.6279" x2="67.0156" y2="13.0029">
		<stop  offset="0" style="stop-color:#62AAAD"/>
		<stop  offset="0.9892" style="stop-color:#0D5ED3"/>
	</linearGradient>
	<path id="svg_1" fill="url(#svg_1_1_)" d="M67.715,8.579l-0.242-0.15l0.643-2.716L3.532,39.005l17.013,7.077l11.822,19.633
		l3.025-12.791l20.413,4.828L67.285,9.218L67.715,8.579z M55.701,15.173L21.1,43.345L9.904,38.662L55.701,15.173z M31.252,58.697
		l-8.098-13.479l35.442-28.99L33.474,49.695l-0.087-0.021L31.252,58.697z M53.799,54.502l-17.521-4.145l26.971-35.804L53.799,54.502
		z"/>
	<linearGradient id="svg_2_1_" gradientUnits="userSpaceOnUse" x1="35.438" y1="69.7979" x2="80.438" y2="27.1729">
		<stop  offset="0" style="stop-color:#62AAAD"/>
		<stop  offset="0.9892" style="stop-color:#0D5ED3"/>
	</linearGradient>
	<polygon id="svg_2" fill="url(#svg_2_1_)" points="38.454,64.731 41.394,65.332 41.934,62.688 48.596,64.049 49.197,61.109 
		39.596,59.146 	"/>
</g>
</svg>
