<?xml version="1.0" encoding="utf-8"?>
<!-- Generator: Adobe Illustrator 16.0.0, SVG Export Plug-In . SVG Version: 6.00 Build 0)  -->
<!DOCTYPE svg PUBLIC "-//W3C//DTD SVG 1.1//EN" "http://www.w3.org/Graphics/SVG/1.1/DTD/svg11.dtd">
<svg version="1.1" id="Layer_1" xmlns="http://www.w3.org/2000/svg" xmlns:xlink="http://www.w3.org/1999/xlink" x="0px" y="0px"
	 width="71px" height="71px" viewBox="0 0 71 71" enable-background="new 0 0 71 71" xml:space="preserve">
<title></title>
<g>
	<title>background</title>
	<rect id="canvas_background" x="-1" y="-1" fill="none" width="73" height="73"/>
</g>
<g>
	<title>Layer 1</title>
	<path id="svg_1" fill="#808080" d="M67.715,8.579l-0.242-0.15l0.644-2.716L3.532,39.005l17.013,7.077l11.822,19.633l3.025-12.791
		l20.413,4.828l11.48-48.534L67.715,8.579z M55.701,15.173L21.1,43.346L9.904,38.662L55.701,15.173z M31.252,58.697l-8.098-13.479
		l35.442-28.99L33.474,49.695l-0.087-0.021L31.252,58.697z M53.799,54.502l-17.521-4.145l26.972-35.804L53.799,54.502z"/>
	<polygon id="svg_2" fill="#808080" points="38.454,64.73 41.395,65.332 41.934,62.688 48.596,64.049 49.197,61.109 39.596,59.146 	
		"/>
</g>
</svg>
