<?xml version="1.0" encoding="utf-8"?>
<!-- Generator: Adobe Illustrator 16.0.0, SVG Export Plug-In . SVG Version: 6.00 Build 0)  -->
<!DOCTYPE svg PUBLIC "-//W3C//DTD SVG 1.1//EN" "http://www.w3.org/Graphics/SVG/1.1/DTD/svg11.dtd">
<svg version="1.1" id="Layer_1" xmlns="http://www.w3.org/2000/svg" xmlns:xlink="http://www.w3.org/1999/xlink" x="0px" y="0px"
	 width="150px" height="150px" viewBox="0 0 150 150" enable-background="new 0 0 150 150" xml:space="preserve">
<g id="Layer_2">
	<g id="Layer_3">
		<path fill="#808080" d="M123.308,73.266c0-0.587,0-1.174,0-1.761l19.753-6.454l-8.214-25.034l-19.754,6.455
			c-0.586-0.978-1.369-1.956-2.151-2.934l12.322-16.819l-21.318-15.646l-12.321,16.82c-1.174-0.392-2.347-0.783-3.521-1.174V5.987
			H61.896v20.731c-1.173,0.391-2.347,0.782-3.52,1.174l-12.321-16.82l-21.318,15.45l12.321,16.82
			c-0.782,0.978-1.369,1.956-2.151,2.934l-19.753-6.454L6.94,65.051l19.753,6.454c0,0.587,0,1.174,0,1.761c0,0.586,0,1.173,0,1.76
			L6.94,81.479l8.214,25.033l19.753-6.453c0.586,0.978,1.369,1.955,2.151,2.933l-12.321,16.82l21.318,15.45l12.321-16.819
			c1.173,0.391,2.347,0.782,3.52,1.173v20.731h26.402v-20.535c1.174-0.392,2.347-0.782,3.521-1.174l12.126,16.819l21.318-15.45
			l-12.322-16.819c0.782-0.979,1.369-1.956,2.151-2.934l19.754,6.258l8.214-25.033l-19.753-6.454
			C123.308,74.438,123.308,73.852,123.308,73.266z M135.629,85.195l-4.499,13.886l-18.579-6.063l-1.174,1.955
			c-1.173,2.152-2.737,4.107-4.303,5.868l-1.564,1.76l11.539,15.842l-11.931,8.605L93.58,111.207l-1.956,1.173
			c-2.151,0.979-4.498,1.761-6.845,2.151l-2.347,0.587v19.558H67.764v-19.558l-2.347-0.587c-2.348-0.586-4.694-1.368-6.845-2.151
			l-2.152-0.978l-11.539,15.842l-11.93-8.605l11.539-15.842l-1.565-1.76c-1.564-1.761-2.934-3.716-4.303-5.867l-1.173-1.956
			l-18.58,6.063l-4.498-14.081l18.58-6.063l-0.196-2.348c0-1.173-0.195-2.347-0.195-3.716c0-1.368,0-2.542,0.195-3.716l0.196-2.347
			l-18.58-5.672l4.498-13.886l18.58,6.063l1.173-1.956c1.173-2.151,2.738-4.107,4.303-5.867l1.565-1.761L32.952,28.087l11.93-8.605
			L56.42,35.323l2.152-0.978c2.151-0.978,4.498-1.76,7.041-2.151l2.347-0.587V12.05h14.668v19.557l2.347,0.587
			c2.347,0.586,4.694,1.369,6.845,2.151l2.152,0.978l11.538-15.841l11.931,8.605l-11.539,15.841l1.564,1.761
			c1.564,1.76,2.934,3.716,4.303,5.867l1.173,1.956l18.58-6.063l4.498,13.886l-18.579,6.063l0.195,2.347
			c0,1.174,0.195,2.347,0.195,3.716s0,2.542-0.195,3.716l-0.587,1.956L135.629,85.195z"/>
		<path fill="#808080" d="M75,47.449c-14.277,0-25.816,11.539-25.816,25.816S60.723,99.081,75,99.081
			c14.277,0,25.816-11.538,25.816-25.815S89.277,47.449,75,47.449z M75,93.214c-10.953,0-19.949-8.996-19.949-19.948
			c0-10.953,8.996-19.949,19.949-19.949c10.952,0,19.948,8.996,19.948,19.949C94.948,84.218,85.952,93.214,75,93.214z"/>
	</g>
</g>
</svg>
