<?xml version="1.0" encoding="utf-8"?>
<!-- Generator: Adobe Illustrator 16.0.0, SVG Export Plug-In . SVG Version: 6.00 Build 0)  -->
<!DOCTYPE svg PUBLIC "-//W3C//DTD SVG 1.1//EN" "http://www.w3.org/Graphics/SVG/1.1/DTD/svg11.dtd">
<svg version="1.1" id="Layer_1" xmlns="http://www.w3.org/2000/svg" xmlns:xlink="http://www.w3.org/1999/xlink" x="0px" y="0px"
	 width="128px" height="128px" viewBox="0 0 128 128" enable-background="new 0 0 128 128" xml:space="preserve">
<g>
	<title>background</title>
	<rect id="canvas_background" x="-1" y="-1" fill="none" width="582" height="402"/>
</g>
<g>
	<title>Layer 1</title>
	<path id="svg_1" fill="#808080" d="M64.281,84.291c-15.54,0-28.184-12.643-28.184-28.184V42.196
		c0-15.542,12.644-28.187,28.184-28.187c15.542,0,28.186,12.645,28.186,28.187v13.911C92.467,71.648,79.823,84.291,64.281,84.291z
		 M64.281,18.01c-13.335,0-24.184,10.85-24.184,24.187v13.911c0,13.333,10.849,24.184,24.184,24.184
		c13.336,0,24.186-10.851,24.186-24.184V42.196C88.467,28.86,77.617,18.01,64.281,18.01z"/>
	<path id="svg_2" fill="#808080" d="M102.141,114.202H25.63c-6.518,0-11.819-5.304-11.819-11.819v-8.734
		c0-3.856,1.953-9.026,11.26-11.737l11.443-3.168c1.067-0.291,2.167,0.33,2.461,1.396c0.294,1.064-0.33,2.166-1.395,2.461
		l-11.417,3.159C17.81,88.193,17.81,92.3,17.81,93.65v8.733c0,4.313,3.508,7.82,7.819,7.82h76.51c4.313,0,7.818-3.509,7.818-7.82
		V93.65c0-3.644-2.814-6.299-8.371-7.896l-10.893-3.046c-1.063-0.297-1.687-1.398-1.389-2.465c0.299-1.063,1.397-1.688,2.465-1.387
		l10.905,3.049c9.326,2.683,11.281,7.867,11.281,11.744v8.732C113.959,108.898,108.658,114.202,102.141,114.202z"/>
</g>
</svg>
