<?xml version="1.0" encoding="utf-8"?>
<!-- Generator: Adobe Illustrator 16.0.0, SVG Export Plug-In . SVG Version: 6.00 Build 0)  -->
<!DOCTYPE svg PUBLIC "-//W3C//DTD SVG 1.1//EN" "http://www.w3.org/Graphics/SVG/1.1/DTD/svg11.dtd">
<svg version="1.1" id="Layer_1" xmlns="http://www.w3.org/2000/svg" xmlns:xlink="http://www.w3.org/1999/xlink" x="0px" y="0px"
	 width="128px" height="128px" viewBox="0 0 128 128" enable-background="new 0 0 128 128" xml:space="preserve">
<g>
	<title>background</title>
	<rect id="canvas_background" x="-1" y="-1" fill="none" width="582" height="402"/>
</g>
<g>
	<title>Layer 1</title>
	<linearGradient id="svg_1_1_" gradientUnits="userSpaceOnUse" x1="14.1792" y1="94.2578" x2="99.4292" y2="17.5078">
		<stop  offset="0" style="stop-color:#19CCBE"/>
		<stop  offset="1" style="stop-color:#1056C6"/>
	</linearGradient>
	<path id="svg_1" fill="url(#svg_1_1_)" d="M64.281,84.291c-15.54,0-28.184-12.643-28.184-28.184V42.196
		c0-15.542,12.644-28.187,28.184-28.187c15.542,0,28.186,12.645,28.186,28.187v13.911C92.467,71.648,79.823,84.291,64.281,84.291z
		 M64.281,18.01c-13.335,0-24.184,10.85-24.184,24.187v13.911c0,13.334,10.849,24.184,24.184,24.184
		c13.336,0,24.186-10.85,24.186-24.184V42.196C88.467,28.86,77.617,18.01,64.281,18.01z"/>
	<linearGradient id="svg_2_1_" gradientUnits="userSpaceOnUse" x1="38.4624" y1="121.2295" x2="123.7124" y2="44.4795">
		<stop  offset="0" style="stop-color:#19CCBE"/>
		<stop  offset="1" style="stop-color:#1056C6"/>
	</linearGradient>
	<path id="svg_2" fill="url(#svg_2_1_)" d="M102.14,114.202H25.63c-6.518,0-11.819-5.303-11.819-11.819v-8.734
		c0-3.857,1.953-9.027,11.26-11.738l11.443-3.168c1.067-0.291,2.167,0.33,2.461,1.395c0.294,1.065-0.33,2.166-1.395,2.461
		l-11.417,3.16c-8.353,2.435-8.353,6.541-8.353,7.892v8.733c0,4.313,3.508,7.82,7.819,7.82h76.51c4.313,0,7.818-3.508,7.818-7.82
		v-8.733c0-3.644-2.815-6.3-8.371-7.896l-10.893-3.046c-1.063-0.297-1.686-1.399-1.388-2.465c0.298-1.063,1.397-1.688,2.464-1.387
		l10.906,3.049c9.326,2.683,11.281,7.867,11.281,11.744v8.733C113.959,108.899,108.658,114.202,102.14,114.202z"/>
</g>
</svg>
