<?xml version="1.0" encoding="utf-8"?>
<!-- Generator: Adobe Illustrator 16.0.0, SVG Export Plug-In . SVG Version: 6.00 Build 0)  -->
<!DOCTYPE svg PUBLIC "-//W3C//DTD SVG 1.1//EN" "http://www.w3.org/Graphics/SVG/1.1/DTD/svg11.dtd">
<svg version="1.1" id="Layer_1" xmlns="http://www.w3.org/2000/svg" xmlns:xlink="http://www.w3.org/1999/xlink" x="0px" y="0px"
	 width="64px" height="64px" viewBox="0 0 64 64" enable-background="new 0 0 64 64" xml:space="preserve">
<g id="Layer_1_1_">
	<g>
		<circle fill="#F7FFFE" cx="32" cy="32" r="32"/>
	</g>
	<g>
		<path fill="#00686D" d="M48,37.077C48,46.423,40.837,54,32,54s-16-7.577-16-16.923C16,27.731,25.6,20.154,32,10
			C38.4,20.154,48,27.731,48,37.077z"/>
	</g>
	<g>
		<path fill="#3FF5E6" d="M48,35.077C48,44.423,40.837,52,32,52s-16-7.577-16-16.923C16,25.731,25.6,18.154,32,8
			C38.4,18.154,48,25.731,48,35.077z"/>
	</g>
</g>
<g id="Layer_2">
</g>
<path fill="#F7FFFE" d="M38.833,45.709c-1.29,0-1.29,2,0,2S40.123,45.709,38.833,45.709z"/>
<path fill="#F7FFFE" d="M23.38,43.387c-1.497-0.728-2.893-2.701-2.963-4.387c-0.054-1.285-2.054-1.29-2,0
	c0.099,2.355,1.82,5.077,3.954,6.113C23.525,45.675,24.54,43.95,23.38,43.387z"/>
<path fill="#F7FFFE" d="M46.083,33.209c-0.021-1.288-2.021-1.291-2,0c0.021,1.26,0.188,2.316-0.089,3.566
	c-0.271,1.226-0.631,2.471-1.409,3.477s0.625,2.434,1.414,1.414c0.92-1.188,1.431-2.451,1.81-3.898
	C46.234,36.148,46.109,34.857,46.083,33.209z"/>
</svg>
